# xmcd
#
# Track frame offsets: 
#        150
#        12924
#        30219
#        43570
#        59327
#        81342
#        101038
#        121170
#        140258
#        152594
#        171527
#        189495
#        206979
#        222192
#        239473
#        256675
#        273023
#        291906
#        310100
#        325492
#
# Disc length: 4618 seconds
#
# Revision: 0
# Processed by: cddbd v1.5.1PL2 Copyright (c) Steve Scherf et al.
# Submitted via: ExactAudioCopy v0.95b3
#
DISCID=1b120814
DTITLE=Various Artist - Godfathers Of Soul - CD4
DYEAR=2004
DGENRE=Soul
TTITLE0=Isaac Hayes - A Few More Kisses To Go
TTITLE1=Al Jarreau - Lean On Me
TTITLE2=Ben E. King - Stand By Me
TTITLE3=Ike and Tina Turner - I Can't Stop Loving You
TTITLE4=James Brown - Sex Machine
TTITLE5=Marvin Gaye - Let's Get It On
TTITLE6=Rose Royce - Love Don't Live Here Anymore
TTITLE7=The Supremes - Stoned Love
TTITLE8=Teddy Pendergrass - Nine Times Out Of Ten
TTITLE9=Curtis Mayfield - She Don't Let Nobody But Me
TTITLE10=Shabba Ranks - Who Got The Money
TTITLE11=Coolio - Parlay 2001
TTITLE12=Bobby Womack - Woman's Gotta Have It
TTITLE13=Angie Stone - Snowflakes
TTITLE14=Percy Sledge - Try A Little Tenderness
TTITLE15=GQ - Disco Nights (Rock Freak)
TTITLE16=Tom Browne and Toni Smith - Too Hot
TTITLE17=Four Tops - Reach Out, I'll Be There
TTITLE18=Gary Taylor and Gerald Albright - Never Too Blue
TTITLE19=Al Green and Curtis Stigers - Don't Look Back
EXTD=
EXTT0=
EXTT1=
EXTT2=
EXTT3=
EXTT4=
EXTT5=
EXTT6=
EXTT7=
EXTT8=
EXTT9=
EXTT10=
EXTT11=
EXTT12=
EXTT13=
EXTT14=
EXTT15=
EXTT16=
EXTT17=
EXTT18=
EXTT19=
PLAYORDER=
